# xmcd
#
# Track frame offsets:
#	150
#	18505
#	35245
#	51085
#	60998
#	79305
#	96638
#	117078
#	132648
#	148223
#	166870
#	184000
#	202785
#	224908
#	240083
#	253525
#	278523
#	302273
#	319523
#	335655
#
# Disc length: 4638 seconds
#
# Revision: 1
# Processed by: cddbd v1.5PL3 Copyright (c) Steve Scherf et al.
# Submitted via: CDex 1.50Beta5
#
DISCID=20121c14
DTITLE=TULIP - SINCERELY YOURS〜TULIPオリジナルベスト Disc 2
DYEAR=2002
DGENRE=New Age
TTITLE0=千鳥橋渋滞
TTITLE1=もう笑わなくっちゃ
TTITLE2=君のために生れかわろう
TTITLE3=あの、ゆるやかな日々
TTITLE4=なくした言葉
TTITLE5=心を開いて
TTITLE6=愛のかたみ
TTITLE7=生きるといふこと
TTITLE8=あのバスを停めて!
TTITLE9=都会
TTITLE10=あの娘は魔法使い
TTITLE11=博多っ子純情
TTITLE12=人生の始まり
TTITLE13=逆回転
TTITLE14=神様に感謝をしなければ
TTITLE15=Someday Somewhere
TTITLE16=Shooting Star
TTITLE17=2222年ピクニック
TTITLE18=I dream
TTITLE19=Well(Mr.Good-bye)
EXTD=
EXTT0=
EXTT1=
EXTT2=
EXTT3=
EXTT4=
EXTT5=
EXTT6=
EXTT7=
EXTT8=
EXTT9=
EXTT10=
EXTT11=
EXTT12=
EXTT13=
EXTT14=
EXTT15=
EXTT16=
EXTT17=
EXTT18=
EXTT19=
PLAYORDER=
